<?xml version="1.0" encoding="UTF-8"?>
<svg width="1216px" height="1131px" viewBox="0 0 1216 1131" version="1.1" xmlns="http://www.w3.org/2000/svg" xmlns:xlink="http://www.w3.org/1999/xlink">
    <title>Group</title>
    <desc>.</desc>
    <defs></defs>
    <g id="Home" stroke="none" stroke-width="1" fill="none" fill-rule="evenodd">
        <g id="Group">
            <g id="Desktop">
                <rect id="Leg" fill="#CACACA" x="465" y="938" width="291" height="143"></rect>
                <rect id="Leg-copy" fill="#CACACA" x="334" y="1073" width="553" height="58"></rect>
                <rect id="Frame" fill="#CACACA" x="0" y="0" width="1216" height="961" rx="16"></rect>
                <rect id="Screen" fill="#FFFFFF" x="21" y="81" width="1172" height="800"></rect>
            </g>
            <path d="M36.5,302.585419 L36.5,859.5 L1176.5,859.5 L1176.5,302.585419 L265.305417,302.585419 L265.305417,261.5 L61.542677,261.5 L61.542677,302.585419 L36.5,302.585419 Z" id="Rectangle" stroke="#023EA8" stroke-width="3" fill-opacity="0.4" fill="#F0F8FC"></path>
            <rect id="Rectangle" fill="#023EA8" x="35" y="204" width="1143" height="35"></rect>
            <rect id="Rectangle-Copy" fill-opacity="0.2" fill="#023EA8" x="35" y="138" width="1143" height="66"></rect>
            <path d="M52,336 L870,336 L870,446 L52,446 L52,336 Z" id="Rectangle-Copy" fill="#D8DDE6"></path>
            <path d="M886,336 L1160,336 L1160,822 L886,822 L886,336 Z" id="Rectangle-Copy-6" fill="#D8DDE6"></path>
            <path d="M52,587 L870,587 L870,697 L52,697 L52,587 Z" id="Rectangle-Copy-3" fill="#D8DDE6"></path>
            <path d="M52,461 L454,461 L454,571 L52,571 L52,461 Z" id="Rectangle-Copy" fill="#D8DDE6"></path>
            <path d="M52,712 L454,712 L454,822 L52,822 L52,712 Z" id="Rectangle-Copy-4" fill="#D8DDE6"></path>
            <path d="M468,712 L870,712 L870,822 L468,822 L468,712 Z" id="Rectangle-Copy-5" fill="#D8DDE6"></path>
            <path d="M468,461 L870,461 L870,571 L468,571 L468,461 Z" id="Rectangle-Copy-2" fill="#D8DDE6"></path>
            <g id="Nokia_Lumia_logo-Copy" transform="translate(33.000000, 99.000000)" fill="#023EA8" fill-rule="nonzero">
                <g id="g137" transform="translate(0.205372, 0.005271)">
                    <polygon id="path127" points="6.61212766 22.1724792 0.273351064 22.1724792 0.273351064 0.666041667 11.25 0.666041667 24.2023404 16.6793125 24.3119681 16.953875 24.3119681 0.666041667 30.6512234 0.666041667 30.6512234 22.1724792 19.7569149 22.1724792 6.69446809 6.04947917 6.61212766 5.85733333"></polygon>
                    <path d="M33.4220745,6.15920833 C33.4220745,5.28041667 33.5221277,4.5525625 33.7236702,3.97564583 C33.924734,3.39872917 34.3000532,2.8635 34.8491489,2.369 C35.3245213,1.8931875 35.8549468,1.52710417 36.4404255,1.27027083 C37.0259043,1.01391667 37.7621809,0.830875 38.649734,0.721145833 C39.5368085,0.611416667 40.6024468,0.542416667 41.8466489,0.515104167 C43.0908511,0.4873125 45.0114894,0.473895833 47.6095213,0.473895833 C50.2070745,0.473895833 52.1277128,0.4873125 53.3723936,0.515104167 C54.6165957,0.542416667 55.6726596,0.611416667 56.5420213,0.721145833 C57.4104255,0.830875 58.1332979,1.01439583 58.7096809,1.27027083 C59.2860638,1.52710417 59.8117021,1.8931875 60.2875532,2.369 C60.8361702,2.8635 61.2110106,3.39872917 61.4125532,3.97564583 C61.613617,4.5525625 61.7146277,5.28041667 61.7146277,6.15920833 L61.7146277,9.2905625 C61.7146277,12.1291458 61.7146277,14.5915833 61.7146277,16.6793125 C61.7146277,17.5581042 61.613617,18.2998542 61.4125532,18.9040833 C61.2110106,19.5083125 60.8361702,20.0574375 60.2875532,20.5519375 C59.8117021,21.0100208 59.2764894,21.3622083 58.6819149,21.6094583 C58.0873404,21.8567083 57.3462766,22.03975 56.4592021,22.1585833 C55.5716489,22.2774167 54.4787234,22.3550417 53.1799468,22.3919375 C51.8806915,22.4283542 49.9969149,22.4470417 47.5267021,22.4470417 C45.0569681,22.4470417 43.1813298,22.4283542 41.9012234,22.3919375 C40.6206383,22.3550417 39.5320213,22.2774167 38.6358511,22.1585833 C37.7392021,22.03975 37.007234,21.8567083 36.4404255,21.6094583 C35.8731383,21.3622083 35.3431915,21.0100208 34.8491489,20.5519375 C34.3005319,20.0574375 33.9252128,19.5083125 33.7236702,18.9040833 C33.5221277,18.2998542 33.4220745,17.5581042 33.4220745,16.6793125 L33.4220745,6.15920833 Z M39.4865426,15.8278333 C39.4865426,16.2859167 39.6239362,16.6016875 39.8982447,16.775625 C40.1725532,16.9495625 40.6943617,17.0362917 41.4627128,17.0362917 C42.4685106,17.0362917 46.5390957,17.0362917 53.6739894,17.0362917 C54.3872872,17.0362917 54.9129255,16.92225 55.2518617,16.6927292 C55.5903191,16.4641667 55.7597872,16.1757083 55.7597872,15.8278333 L55.7597872,13.3558125 L55.7597872,7.09310417 C55.7597872,6.580875 55.6180851,6.23252083 55.3342021,6.04947917 C55.0503191,5.8664375 54.5246809,5.77491667 53.7563298,5.77491667 C52.7500532,5.77491667 48.6521809,5.77491667 41.4627128,5.77491667 C40.7494149,5.77491667 40.2414894,5.89422917 39.9394149,6.13189583 C39.6378191,6.37004167 39.4865426,6.69060417 39.4865426,7.09310417 L39.4865426,15.8278333 Z" id="path129"></path>
                    <path d="M71.2086702,0.666041667 L71.2086702,22.2548958 L64.4854787,22.2548958 L64.4854787,0.666041667 L71.2086702,0.666041667 Z M82.7339362,0.666041667 L91.6520745,0.666041667 L79.3311702,11.0759375 L93.2438298,22.2548958 L83.5022872,22.2548958 L71.2086702,11.0759375 L82.7339362,0.666041667 Z" id="path131"></path>
                    <polygon id="path133" points="100.790426 0.666041667 100.790426 22.2548958 94.067234 22.2548958 94.067234 0.666041667"></polygon>
                    <path d="M111.465479,18.5744167 L109.462021,22.2548958 L101.997766,22.2548958 L113.825106,0.666041667 L122.441649,0.666041667 L134.159362,22.2548958 L126.695106,22.2548958 L124.719415,18.5744167 L111.465479,18.5744167 Z M113.907447,13.93225 L122.249681,13.93225 L118.078564,6.15920833 L113.907447,13.93225 Z" id="path135"></path>
                </g>
            </g>
        </g>
    </g>
</svg>